<?xml version="1.0" standalone="no"?>
<!DOCTYPE svg PUBLIC "-//W3C//DTD SVG 20010904//EN"
 "http://www.w3.org/TR/2001/REC-SVG-20010904/DTD/svg10.dtd">
<svg version="1.0" xmlns="http://www.w3.org/2000/svg"
 width="512.000000pt" height="512.000000pt" viewBox="0 0 512.000000 512.000000"
 preserveAspectRatio="xMidYMid meet">
<metadata>
Created by potrace 1.14, written by Peter Selinger 2001-2017
</metadata>
<g transform="translate(0.000000,512.000000) scale(0.100000,-0.100000)"
fill="#000000" stroke="none">
<path d="M2379 4245 c-346 -56 -643 -205 -859 -432 -89 -93 -156 -201 -148
-239 2 -11 17 -25 33 -33 53 -25 131 -3 330 94 290 141 464 190 715 202 206
10 388 -20 514 -84 65 -33 156 -125 185 -187 29 -64 51 -165 51 -242 0 -147
-54 -328 -122 -406 -22 -26 -25 -27 -78 -16 -75 14 -312 4 -376 -16 -108 -34
-164 -95 -164 -180 0 -85 53 -146 155 -180 78 -26 234 -38 339 -25 l91 11 43
-47 c100 -111 153 -296 155 -545 1 -109 -3 -161 -16 -209 -52 -193 -208 -338
-432 -403 -70 -20 -101 -23 -250 -22 -148 0 -186 4 -295 28 -69 15 -127 29
-129 31 -2 3 8 177 23 387 25 380 26 385 76 608 70 315 137 659 156 803 22
167 17 411 -9 451 -17 25 -22 27 -60 21 -229 -38 -449 -435 -631 -1135 -76
-293 -122 -571 -133 -813 l-6 -138 -24 6 c-96 24 -224 45 -274 45 -70 0 -89
-19 -89 -89 0 -64 32 -121 104 -189 124 -116 289 -205 537 -290 330 -114 565
-156 854 -156 569 1 986 178 1204 510 103 158 138 297 127 514 -11 229 -49
353 -150 494 -58 82 -184 200 -276 260 -41 27 -79 52 -83 56 -5 4 30 33 76 64
227 150 348 372 347 633 -2 453 -294 747 -839 845 -152 27 -541 35 -672 13z"/>
</g>
</svg>
